<mxfile host="app.diagrams.net" modified="2021-11-09T10:19:59.935Z" agent="5.0 (X11; Linux x86_64) AppleWebKit/537.36 (KHTML, like Gecko) Chrome/94.0.4606.81 Safari/537.36" etag="rYHpbNmNTSfrFwP_6xIv" version="15.7.0" type="github">
  <diagram id="9Er_gXw4VbzqNhkISoFQ" name="Page-1">
    <mxGraphModel dx="1422" dy="1900" grid="1" gridSize="10" guides="1" tooltips="1" connect="1" arrows="1" fold="1" page="1" pageScale="1" pageWidth="850" pageHeight="1100" math="0" shadow="0">
      <root>
        <mxCell id="0" />
        <mxCell id="1" parent="0" />
        <mxCell id="J0r3mLk5rz3qkkXQa-vr-3" value="" style="edgeStyle=orthogonalEdgeStyle;rounded=0;orthogonalLoop=1;jettySize=auto;html=1;" edge="1" parent="1" source="J0r3mLk5rz3qkkXQa-vr-1" target="J0r3mLk5rz3qkkXQa-vr-2">
          <mxGeometry relative="1" as="geometry" />
        </mxCell>
        <mxCell id="J0r3mLk5rz3qkkXQa-vr-1" value="" style="shape=actor;whiteSpace=wrap;html=1;" vertex="1" parent="1">
          <mxGeometry x="50" y="120" width="40" height="60" as="geometry" />
        </mxCell>
        <mxCell id="J0r3mLk5rz3qkkXQa-vr-5" value="" style="edgeStyle=orthogonalEdgeStyle;rounded=0;orthogonalLoop=1;jettySize=auto;html=1;" edge="1" parent="1" source="J0r3mLk5rz3qkkXQa-vr-2">
          <mxGeometry relative="1" as="geometry">
            <mxPoint x="360" y="150" as="targetPoint" />
          </mxGeometry>
        </mxCell>
        <mxCell id="J0r3mLk5rz3qkkXQa-vr-2" value="wagamama.com" style="ellipse;whiteSpace=wrap;html=1;" vertex="1" parent="1">
          <mxGeometry x="130" y="120" width="120" height="60" as="geometry" />
        </mxCell>
        <mxCell id="J0r3mLk5rz3qkkXQa-vr-7" value="&lt;span style=&quot;color: rgb(22, 25, 31); font-family: &amp;quot;amazon ember&amp;quot;, &amp;quot;helvetica neue&amp;quot;, roboto, arial, sans-serif; font-size: 14px; font-style: normal; font-weight: 400; letter-spacing: normal; text-align: center; text-indent: 0px; text-transform: none; word-spacing: 0px; background-color: rgb(255, 255, 255); display: inline; float: none;&quot;&gt;wagamama-com-staging.omnifitrgsites.co.uk&lt;/span&gt;" style="text;whiteSpace=wrap;html=1;" vertex="1" parent="1">
          <mxGeometry x="249" y="219" width="300" height="30" as="geometry" />
        </mxCell>
        <mxCell id="J0r3mLk5rz3qkkXQa-vr-15" style="edgeStyle=orthogonalEdgeStyle;rounded=0;orthogonalLoop=1;jettySize=auto;html=1;exitX=0.5;exitY=0;exitDx=0;exitDy=0;exitPerimeter=0;" edge="1" parent="1" source="J0r3mLk5rz3qkkXQa-vr-8" target="J0r3mLk5rz3qkkXQa-vr-11">
          <mxGeometry relative="1" as="geometry" />
        </mxCell>
        <mxCell id="J0r3mLk5rz3qkkXQa-vr-18" style="edgeStyle=orthogonalEdgeStyle;rounded=0;orthogonalLoop=1;jettySize=auto;html=1;exitX=1;exitY=0.5;exitDx=0;exitDy=0;exitPerimeter=0;" edge="1" parent="1" source="J0r3mLk5rz3qkkXQa-vr-8" target="J0r3mLk5rz3qkkXQa-vr-17">
          <mxGeometry relative="1" as="geometry" />
        </mxCell>
        <mxCell id="J0r3mLk5rz3qkkXQa-vr-8" value="" style="sketch=0;points=[[0,0,0],[0.25,0,0],[0.5,0,0],[0.75,0,0],[1,0,0],[0,1,0],[0.25,1,0],[0.5,1,0],[0.75,1,0],[1,1,0],[0,0.25,0],[0,0.5,0],[0,0.75,0],[1,0.25,0],[1,0.5,0],[1,0.75,0]];outlineConnect=0;fontColor=#232F3E;gradientColor=#945DF2;gradientDirection=north;fillColor=#5A30B5;strokeColor=#ffffff;dashed=0;verticalLabelPosition=bottom;verticalAlign=top;align=center;html=1;fontSize=12;fontStyle=0;aspect=fixed;shape=mxgraph.aws4.resourceIcon;resIcon=mxgraph.aws4.cloudfront;" vertex="1" parent="1">
          <mxGeometry x="580" y="111" width="78" height="78" as="geometry" />
        </mxCell>
        <mxCell id="J0r3mLk5rz3qkkXQa-vr-10" style="edgeStyle=orthogonalEdgeStyle;rounded=0;orthogonalLoop=1;jettySize=auto;html=1;exitX=1;exitY=0.5;exitDx=0;exitDy=0;exitPerimeter=0;entryX=0;entryY=0.5;entryDx=0;entryDy=0;entryPerimeter=0;" edge="1" parent="1" source="J0r3mLk5rz3qkkXQa-vr-9" target="J0r3mLk5rz3qkkXQa-vr-8">
          <mxGeometry relative="1" as="geometry" />
        </mxCell>
        <mxCell id="J0r3mLk5rz3qkkXQa-vr-9" value="" style="sketch=0;points=[[0,0,0],[0.25,0,0],[0.5,0,0],[0.75,0,0],[1,0,0],[0,1,0],[0.25,1,0],[0.5,1,0],[0.75,1,0],[1,1,0],[0,0.25,0],[0,0.5,0],[0,0.75,0],[1,0.25,0],[1,0.5,0],[1,0.75,0]];outlineConnect=0;fontColor=#232F3E;gradientColor=#945DF2;gradientDirection=north;fillColor=#5A30B5;strokeColor=#ffffff;dashed=0;verticalLabelPosition=bottom;verticalAlign=top;align=center;html=1;fontSize=12;fontStyle=0;aspect=fixed;shape=mxgraph.aws4.resourceIcon;resIcon=mxgraph.aws4.route_53;" vertex="1" parent="1">
          <mxGeometry x="360" y="111" width="78" height="78" as="geometry" />
        </mxCell>
        <mxCell id="J0r3mLk5rz3qkkXQa-vr-11" value="" style="sketch=0;points=[[0,0,0],[0.25,0,0],[0.5,0,0],[0.75,0,0],[1,0,0],[0,1,0],[0.25,1,0],[0.5,1,0],[0.75,1,0],[1,1,0],[0,0.25,0],[0,0.5,0],[0,0.75,0],[1,0.25,0],[1,0.5,0],[1,0.75,0]];outlineConnect=0;fontColor=#232F3E;gradientColor=#F54749;gradientDirection=north;fillColor=#C7131F;strokeColor=#ffffff;dashed=0;verticalLabelPosition=bottom;verticalAlign=top;align=center;html=1;fontSize=12;fontStyle=0;aspect=fixed;shape=mxgraph.aws4.resourceIcon;resIcon=mxgraph.aws4.certificate_manager_3;" vertex="1" parent="1">
          <mxGeometry x="580" y="-40" width="78" height="78" as="geometry" />
        </mxCell>
        <mxCell id="J0r3mLk5rz3qkkXQa-vr-12" value="route53" style="text;html=1;strokeColor=none;fillColor=none;align=center;verticalAlign=middle;whiteSpace=wrap;rounded=0;" vertex="1" parent="1">
          <mxGeometry x="369" y="189" width="60" height="30" as="geometry" />
        </mxCell>
        <mxCell id="J0r3mLk5rz3qkkXQa-vr-13" value="cloudfront" style="text;html=1;strokeColor=none;fillColor=none;align=center;verticalAlign=middle;whiteSpace=wrap;rounded=0;" vertex="1" parent="1">
          <mxGeometry x="589" y="189" width="60" height="30" as="geometry" />
        </mxCell>
        <mxCell id="J0r3mLk5rz3qkkXQa-vr-16" value="certificate manager" style="text;html=1;strokeColor=none;fillColor=none;align=center;verticalAlign=middle;whiteSpace=wrap;rounded=0;" vertex="1" parent="1">
          <mxGeometry x="589" y="-70" width="60" height="30" as="geometry" />
        </mxCell>
        <mxCell id="J0r3mLk5rz3qkkXQa-vr-17" value="" style="sketch=0;points=[[0,0,0],[0.25,0,0],[0.5,0,0],[0.75,0,0],[1,0,0],[0,1,0],[0.25,1,0],[0.5,1,0],[0.75,1,0],[1,1,0],[0,0.25,0],[0,0.5,0],[0,0.75,0],[1,0.25,0],[1,0.5,0],[1,0.75,0]];outlineConnect=0;fontColor=#232F3E;gradientColor=#60A337;gradientDirection=north;fillColor=#277116;strokeColor=#ffffff;dashed=0;verticalLabelPosition=bottom;verticalAlign=top;align=center;html=1;fontSize=12;fontStyle=0;aspect=fixed;shape=mxgraph.aws4.resourceIcon;resIcon=mxgraph.aws4.s3;" vertex="1" parent="1">
          <mxGeometry x="770" y="111" width="78" height="78" as="geometry" />
        </mxCell>
        <mxCell id="J0r3mLk5rz3qkkXQa-vr-19" value="S3" style="text;html=1;strokeColor=none;fillColor=none;align=center;verticalAlign=middle;whiteSpace=wrap;rounded=0;" vertex="1" parent="1">
          <mxGeometry x="779" y="189" width="60" height="30" as="geometry" />
        </mxCell>
      </root>
    </mxGraphModel>
  </diagram>
</mxfile>
